<?xml version="1.0" standalone="no"?>
<!DOCTYPE svg PUBLIC "-//W3C//DTD SVG 20010904//EN"
 "http://www.w3.org/TR/2001/REC-SVG-20010904/DTD/svg10.dtd">
<svg version="1.0" xmlns="http://www.w3.org/2000/svg"
 width="811.000000pt" height="811.000000pt" viewBox="0 0 811.000000 811.000000"
 preserveAspectRatio="xMidYMid meet">
<metadata>
Created by potrace 1.14, written by Peter Selinger 2001-2017
</metadata>
<g transform="translate(0.000000,811.000000) scale(0.100000,-0.100000)"
fill="#000000" stroke="none">
<path d="M4005 8065 c-28 -13 -74 -26 -103 -30 -29 -3 -74 -10 -100 -15 -26
-4 -74 -12 -107 -15 -33 -4 -65 -11 -71 -16 -6 -5 -13 -6 -16 -3 -5 4 -110
-17 -258 -53 -30 -7 -28 -7 -120 -33 -41 -12 -82 -23 -90 -25 -19 -4 -257 -84
-290 -98 -14 -6 -27 -11 -30 -12 -9 -3 -42 -16 -160 -63 -124 -50 -571 -271
-590 -293 -4 -5 -121 -77 -211 -131 -32 -20 -311 -218 -319 -227 -3 -3 -39
-33 -80 -66 -41 -33 -80 -64 -86 -70 -208 -187 -349 -328 -459 -459 -22 -26
-45 -53 -51 -59 -27 -31 -171 -226 -183 -250 -8 -15 -18 -27 -23 -27 -5 0 -6
-4 -3 -10 3 -5 2 -10 -3 -10 -5 0 -15 -13 -22 -30 -7 -16 -16 -30 -21 -30 -5
0 -9 -4 -9 -9 0 -4 -22 -46 -48 -92 -26 -46 -71 -136 -99 -199 -54 -120 -143
-360 -143 -383 0 -8 -3 -17 -7 -21 -4 -3 -8 -12 -9 -19 -1 -7 -12 -48 -24 -92
-12 -44 -24 -86 -25 -95 -2 -8 -4 -15 -5 -15 -1 0 -3 -9 -5 -20 -1 -11 -14
-76 -28 -145 -22 -110 -34 -185 -43 -270 -1 -14 -3 -25 -4 -25 -1 0 -4 -43 -8
-95 -13 -185 -5 -608 13 -730 2 -19 7 -55 10 -80 9 -78 16 -123 31 -200 8 -41
17 -86 20 -100 2 -14 6 -34 8 -45 9 -41 16 -76 20 -97 3 -13 14 -59 26 -103
12 -44 23 -84 24 -90 15 -64 56 -200 123 -410 25 -77 46 -144 47 -150 3 -13
35 -125 42 -145 3 -8 5 -16 5 -17 0 -2 5 -17 10 -35 6 -18 12 -44 15 -58 2
-14 6 -34 9 -46 3 -12 7 -39 10 -60 4 -21 8 -46 10 -54 6 -22 18 -130 19 -165
1 -16 4 -34 7 -40 8 -12 4 -476 -4 -528 -12 -77 -37 -203 -47 -237 -6 -19 -13
-42 -15 -51 -14 -65 -136 -316 -164 -339 -3 -3 -24 -27 -46 -55 -38 -48 -64
-74 -165 -164 l-45 -41 40 4 c190 20 325 87 475 236 53 52 106 109 118 125
120 163 176 255 230 380 51 118 55 128 58 144 1 8 9 35 18 60 8 25 24 82 35
126 18 74 25 110 37 190 3 17 7 40 9 51 3 12 7 50 11 85 3 35 7 75 10 89 21
133 22 459 0 590 -3 14 -10 66 -16 115 -15 120 -17 135 -24 171 -3 17 -8 46
-10 65 -3 19 -14 88 -26 154 -11 66 -23 140 -27 165 -9 70 -11 85 -13 85 -1 0
-3 18 -5 40 -2 22 -7 65 -10 95 -3 30 -8 80 -11 110 -16 157 -7 352 22 500 3
19 8 49 9 65 2 17 4 30 5 30 1 0 3 7 5 15 2 8 19 69 38 135 58 198 145 400
249 578 23 40 41 74 39 76 -1 2 1 7 6 10 5 3 20 24 33 46 13 22 32 49 42 59
10 11 18 23 18 27 0 6 100 142 137 185 10 11 41 47 68 79 122 145 349 357 510
476 33 24 62 47 63 52 2 4 8 7 14 7 5 0 25 12 45 28 56 42 297 182 314 182 5
0 9 5 9 10 0 6 3 9 8 8 4 -1 30 9 57 21 99 47 180 82 240 105 33 13 69 27 80
31 11 5 22 9 25 10 3 0 50 15 105 33 55 18 114 37 130 42 49 15 187 49 225 55
19 3 42 8 50 10 8 2 31 7 50 10 19 3 42 8 50 10 8 2 38 6 65 10 28 3 61 8 75
10 44 6 113 14 180 21 88 8 492 12 559 5 l54 -6 73 -145 c41 -79 74 -148 74
-152 0 -4 -10 -5 -22 -2 -13 2 -45 6 -73 9 -27 3 -79 8 -115 12 -83 10 -517
10 -550 1 -24 -7 -25 -10 -27 -100 0 -51 -4 -181 -7 -288 -4 -107 -7 -202 -6
-210 0 -8 0 -28 -1 -45 0 -16 -1 -95 -2 -175 l-2 -144 50 -1 c43 0 50 3 52 20
1 11 11 54 23 95 12 41 22 83 23 93 1 9 5 17 9 17 4 0 8 6 8 13 0 7 16 44 36
82 96 184 233 323 405 410 81 42 245 98 259 90 5 -3 55 -97 111 -208 175 -349
680 -1349 719 -1422 54 -106 57 -115 23 -85 -15 14 -37 34 -48 45 -11 11 -42
38 -70 60 -27 21 -52 42 -55 45 -3 3 -27 22 -55 41 -27 18 -52 37 -55 40 -27
32 -392 209 -460 223 -14 3 -52 15 -85 26 -32 11 -68 22 -80 25 -66 15 -124
27 -155 31 -19 2 -44 8 -55 11 -24 8 -18 7 -76 16 -25 4 -57 10 -70 12 -91 16
-480 29 -503 17 -4 -2 -31 -6 -60 -8 -52 -5 -72 -8 -116 -18 -14 -3 -36 -8
-50 -10 -21 -4 -107 -26 -160 -40 -171 -47 -439 -191 -591 -318 -79 -65 -269
-260 -269 -274 0 -3 -15 -24 -34 -47 -35 -44 -108 -154 -146 -222 -69 -123
-171 -348 -185 -410 -2 -5 -10 -36 -19 -67 -10 -31 -19 -70 -22 -85 -2 -15 -7
-41 -11 -58 -3 -16 -8 -39 -10 -50 -6 -37 -10 -360 -4 -370 3 -5 6 -30 8 -55
3 -61 20 -154 50 -275 2 -11 5 -27 5 -35 0 -8 2 -22 6 -30 3 -8 13 -44 23 -80
9 -36 24 -91 33 -122 75 -271 84 -302 110 -420 29 -135 35 -168 43 -273 14
-191 6 -320 -33 -525 -4 -19 -7 -46 -8 -60 -1 -14 -4 -27 -7 -30 -4 -3 -9 -23
-12 -45 -3 -22 -13 -73 -21 -113 -22 -99 -21 -109 7 -106 12 1 22 3 22 4 0 1
11 3 25 4 20 3 98 16 120 21 3 1 25 5 50 9 74 14 84 16 110 22 14 3 34 7 45 9
11 2 29 6 40 9 118 28 157 38 197 50 25 8 49 12 52 9 3 -4 6 -2 6 3 0 5 8 10
18 10 9 1 114 29 232 63 118 35 222 64 230 66 8 2 58 16 110 31 52 15 102 28
110 29 8 1 22 5 30 8 16 7 219 51 283 63 32 5 43 3 65 -18 15 -14 72 -58 127
-99 55 -40 103 -78 107 -84 4 -5 8 -6 8 -2 0 5 7 2 15 -5 8 -7 20 -17 27 -23
24 -19 253 -169 258 -170 3 0 32 -18 65 -40 74 -49 58 -39 305 -188 113 -68
234 -140 270 -159 36 -20 103 -57 150 -83 144 -81 370 -195 370 -187 0 4 4 2
8 -4 13 -20 293 -134 328 -134 12 0 14 7 8 32 -4 18 -8 40 -9 48 -1 8 -7 34
-14 57 -10 36 -21 87 -56 248 -2 11 -14 67 -25 125 -12 58 -23 112 -25 121 -4
17 -13 75 -21 121 -2 16 -6 40 -8 55 -3 16 -7 46 -11 68 -3 22 -10 63 -15 90
-6 28 -12 68 -15 90 -2 22 -7 54 -10 70 -3 17 -7 50 -9 75 -12 135 -18 187
-21 210 -3 14 -7 63 -11 110 -3 47 -7 96 -9 110 -15 89 -25 660 -15 801 3 39
3 74 0 78 -3 5 -59 8 -125 8 -276 -2 -498 65 -731 219 -80 53 -194 154 -194
172 0 13 106 122 119 122 5 0 11 4 13 9 5 14 97 65 169 94 166 66 355 78 545
34 40 -10 159 -60 196 -84 21 -12 40 -23 42 -23 11 0 112 -94 151 -141 56 -67
120 -184 144 -264 7 -22 15 -47 18 -55 3 -8 7 -22 8 -30 1 -8 8 -42 15 -75 14
-65 19 -309 8 -418 -6 -63 -5 -67 15 -72 155 -36 206 -46 227 -49 130 -18 347
-60 356 -70 7 -6 146 -276 309 -601 527 -1044 606 -1200 615 -1209 8 -8 93 29
177 77 l33 19 -224 441 c-123 243 -339 672 -481 952 -142 281 -349 690 -460
910 -111 220 -334 661 -495 980 -161 319 -386 765 -500 990 -646 1277 -830
1645 -823 1645 4 0 3 4 -3 8 -10 6 -160 292 -177 336 -4 10 4 11 36 6 23 -5
60 -11 82 -14 46 -6 122 -22 135 -26 3 -1 8 -2 12 -1 7 1 101 -23 213 -54 33
-9 65 -17 70 -18 6 -2 16 -6 23 -10 6 -5 12 -6 12 -3 0 3 37 -8 83 -25 45 -17
96 -33 112 -36 17 -2 35 -8 40 -13 6 -4 46 -21 90 -38 44 -17 105 -42 136 -55
l56 -25 38 81 c21 45 65 138 98 207 33 69 72 152 87 185 15 33 49 105 75 160
42 90 185 396 287 614 l39 85 -23 17 c-12 10 -25 16 -27 14 -2 -3 -16 4 -30
13 -34 24 -288 140 -421 193 -107 42 -456 160 -468 157 -4 -1 -14 2 -22 5 -12
5 -90 24 -260 63 -53 12 -66 15 -100 19 -19 2 -35 5 -35 6 0 1 -9 3 -20 5 -58
9 -90 14 -128 19 -23 3 -59 8 -80 11 -21 3 -55 7 -75 9 -20 2 -65 6 -99 10
-34 3 -123 8 -198 10 -74 2 -139 7 -145 10 -5 3 -10 3 -10 -2 0 -4 -18 -8 -40
-8 -22 0 -40 4 -40 8 0 5 -5 5 -11 1 -6 -3 -66 -8 -133 -10 -66 -3 -127 -6
-133 -9 -7 -2 -17 5 -23 15 -13 24 -13 24 -75 -5z"/>
<path d="M3650 6214 c-87 -19 -105 -23 -137 -29 -114 -21 -183 -42 -183 -54 0
-3 5 -24 10 -46 14 -61 21 -97 26 -128 2 -16 6 -32 9 -37 3 -4 7 -25 11 -46 3
-22 14 -73 25 -115 10 -42 20 -93 21 -113 2 -20 7 -36 12 -36 5 0 7 -3 4 -6
-3 -3 0 -31 8 -63 7 -32 15 -69 18 -82 2 -13 11 -55 20 -94 9 -38 17 -80 19
-92 2 -12 6 -25 10 -29 3 -3 41 2 84 12 43 10 81 18 85 18 19 2 19 -3 33 749
2 114 1 207 -3 206 -4 -1 -36 -7 -72 -15z"/>
<path d="M3095 6060 c-11 -4 -72 -27 -135 -50 -63 -24 -118 -47 -121 -52 -3
-5 -10 -10 -15 -10 -5 -1 -21 -5 -36 -10 -30 -11 -35 -27 -16 -46 7 -7 10 -12
7 -12 -3 0 28 -67 70 -149 42 -82 128 -252 191 -379 110 -220 116 -230 140
-225 14 3 31 10 38 16 6 5 12 6 12 2 0 -4 7 -1 17 6 9 8 17 12 17 10 1 -6 79
19 89 28 4 4 -3 45 -17 92 -34 119 -39 143 -38 152 1 4 -3 7 -9 7 -5 0 -8 4
-5 8 3 5 -8 53 -25 108 -16 54 -31 109 -33 122 -3 13 -17 64 -32 115 -14 51
-27 97 -28 104 -1 7 -5 16 -9 19 -4 4 -7 16 -7 27 0 19 -12 65 -29 108 -4 12
-12 14 -26 9z"/>
<path d="M2560 5820 c-131 -74 -166 -94 -170 -99 -3 -3 -12 -10 -21 -16 -65
-41 -99 -67 -99 -76 0 -7 15 -28 33 -48 17 -21 50 -59 72 -86 22 -27 49 -59
60 -72 11 -12 31 -36 45 -52 14 -17 37 -44 52 -61 15 -17 42 -49 60 -72 18
-22 39 -47 47 -55 7 -7 29 -33 48 -56 155 -189 164 -196 193 -162 7 8 16 15
21 15 12 0 92 51 101 65 4 5 0 18 -9 27 -9 10 -13 18 -9 18 3 0 -4 17 -18 38
-35 55 -94 166 -94 176 0 5 -4 12 -9 15 -9 7 -14 15 -72 123 -21 40 -59 109
-83 153 -25 44 -62 112 -83 150 -45 84 -46 85 -65 75z"/>
<path d="M5449 5658 c-1 -2 -2 -56 -3 -121 l-1 -117 121 0 121 0 0 120 0 120
-119 0 c-65 0 -118 -1 -119 -2z"/>
<path d="M5929 5620 c0 -22 0 -65 0 -95 0 -30 0 -66 0 -80 l1 -25 120 0 120 0
0 120 0 120 -120 0 -120 0 -1 -40z"/>
<path d="M6410 5540 l0 -120 120 0 120 0 0 120 0 120 -120 0 -120 0 0 -120z"/>
<path d="M6890 5540 l0 -120 120 0 120 0 1 45 c1 25 1 56 1 70 0 14 0 48 -1
75 l-1 50 -120 0 -120 0 0 -120z"/>
<path d="M7374 5540 l-1 -120 121 0 122 0 -1 118 0 117 -120 3 -120 3 -1 -121z"/>
<path d="M2015 5422 c-50 -50 -104 -107 -122 -128 l-32 -39 27 -25 c15 -14 54
-46 87 -72 33 -25 71 -55 84 -67 13 -12 27 -21 30 -21 3 0 23 -16 45 -35 21
-19 41 -35 45 -35 3 0 20 -14 38 -30 18 -17 36 -30 42 -30 5 0 11 -3 13 -8 5
-12 157 -132 167 -132 5 0 11 -4 13 -8 2 -4 22 -23 45 -41 l43 -34 47 44 c27
24 59 54 71 66 17 15 21 26 15 36 -8 14 -97 119 -138 161 -11 12 -45 50 -75
86 -57 67 -98 114 -140 160 -14 15 -50 56 -80 90 -30 35 -73 83 -95 107 l-41
44 -89 -89z"/>
<path d="M7599 5393 c-1 -5 -2 -59 -3 -120 -2 -129 -15 -114 109 -114 36 0 80
0 98 0 l33 1 0 120 -1 120 -117 0 c-65 0 -119 -3 -119 -7z"/>
<path d="M1683 5013 c-51 -78 -117 -202 -111 -208 2 -2 26 -14 53 -27 28 -13
102 -51 165 -83 63 -32 117 -59 120 -60 4 -1 200 -100 331 -167 l47 -24 48 59
c71 87 71 85 34 118 -17 16 -33 29 -36 29 -8 0 -339 253 -342 261 -2 5 -9 9
-15 9 -6 0 -32 18 -58 40 -26 22 -52 40 -57 40 -6 0 -12 4 -14 8 -4 10 -98 82
-107 82 -4 0 -29 -35 -58 -77z"/>
<path d="M7597 4906 c-3 -10 -1 -212 2 -226 0 -3 53 -5 116 -5 94 0 116 3 119
15 2 8 3 62 2 120 l-1 105 -117 1 c-76 0 -118 -3 -121 -10z"/>
<path d="M1439 4557 c-27 -64 -61 -182 -63 -222 -1 -29 1 -30 64 -42 68 -12
105 -19 155 -28 17 -3 65 -12 108 -21 42 -8 87 -17 100 -20 12 -2 33 -6 47 -9
14 -3 39 -7 55 -10 48 -8 79 -14 102 -19 11 -2 41 -7 65 -11 l43 -6 29 63 c16
35 33 70 37 79 6 13 -2 20 -39 34 -26 9 -67 25 -92 35 -25 10 -103 41 -175 69
-71 27 -184 71 -250 97 -66 25 -130 50 -142 55 -19 7 -24 2 -44 -44z"/>
<path d="M7597 4425 c-2 -5 -3 -59 -3 -120 l1 -110 120 0 120 0 0 120 0 119
-117 1 c-71 0 -119 -4 -121 -10z"/>
<path d="M1315 4068 c1 -12 -2 -43 -7 -67 -4 -25 -11 -70 -13 -101 -3 -30 -8
-75 -11 -100 -3 -25 -7 -72 -10 -105 -6 -71 -6 -427 0 -470 2 -16 5 -43 6 -60
2 -28 3 -27 17 15 15 48 16 49 28 95 4 17 10 35 14 40 3 6 6 17 8 25 1 8 23
57 49 108 42 85 121 196 163 229 70 56 104 79 153 104 63 32 181 66 243 71 40
3 40 3 57 63 21 72 21 71 6 72 -27 2 -123 16 -129 19 -3 2 -34 6 -70 10 -35 3
-67 8 -70 10 -3 2 -55 10 -115 19 -60 9 -122 18 -139 21 -45 7 -85 13 -136 19
-43 6 -46 5 -44 -17z"/>
<path d="M7597 3945 c-2 -5 -3 -59 -3 -120 l1 -110 120 -3 120 -3 0 121 c0
100 -2 120 -15 121 -134 4 -220 2 -223 -6z"/>
<path d="M7599 3463 c-1 -5 -2 -59 -3 -120 l-1 -113 32 -1 c18 0 58 0 88 0 30
0 70 0 88 0 l33 1 0 120 -1 120 -117 0 c-65 0 -119 -3 -119 -7z"/>
<path d="M7595 2876 c0 -61 3 -115 7 -121 5 -8 195 -13 228 -6 3 1 6 54 5 119
l0 117 -120 1 -120 2 0 -112z"/>
<path d="M7596 2390 c1 -63 2 -117 3 -120 0 -4 54 -6 119 -5 l117 0 1 118 c0
64 -2 117 -5 118 -3 1 -58 2 -121 3 l-115 2 1 -116z"/>
<path d="M7599 2020 c-5 -20 -3 -223 2 -231 3 -6 52 -9 120 -7 l114 3 1 118
c1 100 -1 117 -15 118 -60 4 -221 3 -222 -1z"/>
<path d="M7597 1533 c-2 -5 -3 -57 -3 -118 l1 -110 121 -3 120 -3 0 121 0 120
-117 0 c-65 0 -120 -3 -122 -7z"/>
</g>
</svg>
